<svg xmlns="http://www.w3.org/2000/svg" viewBox="0 0 560 180" fill="none" role="img" aria-label="Yebaam logo white">
  <g fill="#ffffff">
    <ellipse cx="286" cy="38" rx="13" ry="13" />
    <path d="M255 44c0-14 14-26 31-26s31 12 31 26-14 26-31 26-31-12-31-26Zm9 0c0 9 10 17 22 17s22-8 22-17-10-17-22-17-22 8-22 17Z"/>
    <path d="M206 57c0-13 31-24 80-24s80 11 80 24-31 24-80 24-80-11-80-24Zm17 0c0 7 27 14 63 14s63-7 63-14-27-14-63-14-63 7-63 14Z"/>
    <circle cx="247" cy="57" r="4"/>
    <circle cx="282" cy="57" r="4"/>
    <circle cx="317" cy="57" r="4"/>
    <path d="M281 67c0-2 1.5-4 3.4-4 1.8 0 3.3 1.8 3.3 4 0 6.4-1.3 11.5-3.3 15h-3.4c-2-3.5-3.4-8.6-3.4-15Z"/>
    <path d="M278 82h10l15 31h-40l15-31Z"/>
  </g>
  <text x="40" y="138" fill="#ffffff" font-family="Poppins, Arial, sans-serif" font-size="84" font-weight="800" letter-spacing="-2">Yebaam</text>
</svg>
